<?xml version="1.0" encoding="UTF-8" standalone="no"?>
<svg
   xmlns:dc="http://purl.org/dc/elements/1.1/"
   xmlns:cc="http://creativecommons.org/ns#"
   xmlns:rdf="http://www.w3.org/1999/02/22-rdf-syntax-ns#"
   xmlns:svg="http://www.w3.org/2000/svg"
   xmlns="http://www.w3.org/2000/svg"
   width="43.234764mm"
   height="43.234764mm"
   viewBox="0 0 43.234763 43.234764"
   version="1.1"
   id="svg124">
  <defs
     id="defs118" />
  <metadata
     id="metadata121">
    <rdf:RDF>
      <cc:Work
         rdf:about="">
        <dc:format>image/svg+xml</dc:format>
        <dc:type
           rdf:resource="http://purl.org/dc/dcmitype/StillImage" />
        <dc:title></dc:title>
      </cc:Work>
    </rdf:RDF>
  </metadata>
  <rect
     style="fill:#1a1a1a;fill-opacity:1;stroke:none;stroke-width:0.296542;stroke-miterlimit:4;stroke-dasharray:none"
     id="rect1048"
     width="43.234764"
     height="43.234764"
     x="0"
     y="0"
     ry="21.617382" />
  <g
     id="g1039"
     transform="matrix(0.76290757,0,0,0.76290757,-36.239112,-45.097663)">
    <path
       id="path10534"
       style="color:#000000;font-style:normal;font-variant:normal;font-weight:normal;font-stretch:normal;font-size:medium;line-height:normal;font-family:sans-serif;font-variant-ligatures:normal;font-variant-position:normal;font-variant-caps:normal;font-variant-numeric:normal;font-variant-alternates:normal;font-variant-east-asian:normal;font-feature-settings:normal;font-variation-settings:normal;text-indent:0;text-align:start;text-decoration:none;text-decoration-line:none;text-decoration-style:solid;text-decoration-color:#000000;letter-spacing:normal;word-spacing:normal;text-transform:none;writing-mode:lr-tb;direction:ltr;text-orientation:mixed;dominant-baseline:auto;baseline-shift:baseline;text-anchor:start;white-space:normal;shape-padding:0;shape-margin:0;inline-size:0;clip-rule:nonzero;display:inline;overflow:visible;visibility:visible;isolation:auto;mix-blend-mode:normal;color-interpolation:sRGB;color-interpolation-filters:linearRGB;solid-color:#000000;solid-opacity:1;vector-effect:none;fill:#ff6600;fill-opacity:1;fill-rule:nonzero;stroke:none;stroke-width:1.053;stroke-linecap:square;stroke-linejoin:miter;stroke-miterlimit:4;stroke-dasharray:none;stroke-dashoffset:0;stroke-opacity:1;color-rendering:auto;image-rendering:auto;shape-rendering:auto;text-rendering:auto;enable-background:accumulate;stop-color:#000000"
       d="m 79.687911,103.27385 -1.256987,0.14366 0.07237,0.62741 0.372199,3.23932 0.04298,0.37601 -1.472472,1.93554 -0.382537,0.50172 1.00559,0.76507 0.382538,-0.50171 0.67529,-0.88751 0.13495,1.17537 0.07237,0.62957 1.254268,-0.14636 -0.07183,-0.62687 -0.16651,-1.45615 1.149246,0.69706 0.540885,0.32703 0.656246,-1.07959 -0.540885,-0.32921 -1.986694,-1.20312 -0.037,-0.32105 -0.372199,-3.23878 z" />
    <path
       id="path967"
       style="color:#000000;font-style:normal;font-variant:normal;font-weight:normal;font-stretch:normal;font-size:medium;line-height:normal;font-family:sans-serif;font-variant-ligatures:normal;font-variant-position:normal;font-variant-caps:normal;font-variant-numeric:normal;font-variant-alternates:normal;font-variant-east-asian:normal;font-feature-settings:normal;font-variation-settings:normal;text-indent:0;text-align:start;text-decoration:none;text-decoration-line:none;text-decoration-style:solid;text-decoration-color:#000000;letter-spacing:normal;word-spacing:normal;text-transform:none;writing-mode:lr-tb;direction:ltr;text-orientation:mixed;dominant-baseline:auto;baseline-shift:baseline;text-anchor:start;white-space:normal;shape-padding:0;shape-margin:0;inline-size:0;clip-rule:nonzero;display:inline;overflow:visible;visibility:visible;isolation:auto;mix-blend-mode:normal;color-interpolation:sRGB;color-interpolation-filters:linearRGB;solid-color:#000000;solid-opacity:1;vector-effect:none;fill:#ff6600;fill-opacity:1;fill-rule:nonzero;stroke:none;stroke-width:1.053;stroke-linecap:square;stroke-linejoin:miter;stroke-miterlimit:4;stroke-dasharray:none;stroke-dashoffset:0;stroke-opacity:1;color-rendering:auto;image-rendering:auto;shape-rendering:auto;text-rendering:auto;enable-background:accumulate;stop-color:#000000"
       d="m 73.287079,102.60181 -0.162702,0.61107 -0.912541,3.45155 -0.08271,0.31181 -0.01469,0.055 -2.076478,1.26406 -0.53871,0.32921 0.656246,1.07959 0.540886,-0.3292 0.951719,-0.58061 -0.302004,1.14435 -0.162157,0.61053 1.221618,0.32323 0.162157,-0.61108 0.374376,-1.41588 0.818403,1.06872 0.382537,0.5017 1.003957,-0.76943 -0.382537,-0.50171 -1.413703,-1.84575 0.08271,-0.31181 0.912541,-3.45154 0.162702,-0.61108 z" />
    <path
       style="fill:#ff6600;fill-opacity:1;stroke:none;stroke-width:0.278605px;stroke-linecap:butt;stroke-linejoin:miter;stroke-opacity:1"
       d="m 61.655307,76.479337 -2.617748,2.037577 3.475454,0.39667 z"
       id="path106" />
    <path
       id="path10487"
       style="fill:#ffffff;fill-opacity:1;stroke:none;stroke-width:0.315899;stroke-linecap:butt;stroke-linejoin:miter;stroke-miterlimit:4;stroke-dasharray:none;stroke-opacity:1"
       d="m 65.648284,71.931326 c -2.272223,0.07173 -4.006517,2.739501 -3.992976,4.508832 -0.100617,2.672801 2.23741,4.483473 2.065051,6.899284 -0.196931,1.857783 -4.085181,16.171804 8.869653,18.310118 0.162308,0.81665 0.470524,1.72154 1.065447,1.88603 0.780421,0.21572 1.787181,-0.89179 2.346377,-1.6096 0.358097,0.006 0.708085,0.006 1.050754,5.6e-4 0.412346,0.78175 1.246857,2.13377 2.074846,2.04818 0.803192,-0.0831 1.336868,-1.47368 1.597082,-2.34638 12.349146,-1.951175 10.731738,-12.683614 10.731735,-12.683614 2.952127,-6.032373 0.02474,-13.996985 -5.044274,-16.382195 0.265239,10.691452 -12.129092,13.502625 -15.055012,5.556865 -1.848897,-4.729057 -3.941398,-6.24387 -5.708683,-6.18808 z" />
    <ellipse
       ry="0.97412115"
       rx="0.9475649"
       cy="75.677872"
       cx="64.097519"
       id="path10497"
       style="fill:#1a1a1a;fill-opacity:1;stroke:none;stroke-width:0.47101;stroke-miterlimit:4;stroke-dasharray:none;stroke-opacity:1" />
    <path
       id="path10511"
       d="m 62.2677,78.867594 c -1.224129,-0.03885 -1.437613,3.451014 0.0074,3.674217 1.445204,0.223204 1.334482,-1.10574 1.334482,-1.10574 -0.07824,-1.197803 -0.743994,-2.549502 -1.341853,-2.568477 z"
       style="fill:#ff0000;fill-opacity:1;stroke:none;stroke-width:0.278605px;stroke-linecap:butt;stroke-linejoin:miter;stroke-opacity:1" />
    <path
       id="path10526"
       d="m 62.209922,74.442692 c 0,0 -1.491621,-2.395101 -0.736929,-3.178035 0.421515,-0.437299 1.788956,0.34613 1.788956,0.34613 0,0 0.02725,-2.256464 0.870308,-2.433129 0.788572,-0.165249 1.659296,1.757587 1.659296,1.757587 0,0 1.066206,-1.914408 1.855568,-1.658939 1.300296,0.420827 0.87589,4.005446 0.87589,4.005446 -1.527215,-0.719984 -4.516331,-1.434356 -6.313047,1.16094 z"
       style="fill:#ff0000;stroke:none;stroke-width:0.278605px;stroke-linecap:butt;stroke-linejoin:miter;stroke-opacity:1" />
    <path
       id="path10656"
       d="m 89.538746,91.177065 c -1.3837,-1.074213 -2.528264,-1.490515 -4.659632,-1.257055 1.118587,-1.487346 2.726458,-1.627089 4.810463,-3.303237 -2.752762,-0.185864 -3.532695,-1.033462 -6.825833,0.529078 0.459369,-1.931204 1.784743,-2.533276 3.813328,-3.89205 -33.092352,0.932448 -17.557109,24.358099 2.861674,7.923264 z"
       style="fill:#ececec;stroke:none;stroke-width:0.421198;stroke-linecap:butt;stroke-linejoin:miter;stroke-miterlimit:4;stroke-dasharray:none;stroke-opacity:1" />
    <circle
       style="fill:#ffffff;fill-opacity:1;stroke:none;stroke-width:0.315899;stroke-miterlimit:4;stroke-dasharray:none"
       id="path1002"
       cx="64.06234"
       cy="75.676155"
       r="0.37991908" />
  </g>
</svg>
